<svg xmlns="http://www.w3.org/2000/svg" width="81.472" height="81.543" viewBox="0 0 81.472 81.543">
  <g id="noun_graphic_2565547" transform="translate(-18.692 -1)">
    <g id="Raggruppa_1505" data-name="Raggruppa 1505" transform="translate(18.692 1)">
      <rect id="Rettangolo_137" data-name="Rettangolo 137" width="3" height="2" transform="translate(15.627 48.916)" fill="#393e3f"/>
      <rect id="Rettangolo_138" data-name="Rettangolo 138" width="3" height="2" transform="translate(10.627 48.916)" fill="#393e3f"/>
      <rect id="Rettangolo_139" data-name="Rettangolo 139" width="2" height="2" transform="translate(5.627 48.916)" fill="#393e3f"/>
      <path id="Tracciato_7888" data-name="Tracciato 7888" d="M79.513,51.878a16.322,16.322,0,0,0-4.925-2.691V46.992a3.947,3.947,0,0,0-3.942-3.942,2.631,2.631,0,0,1,2.628-2.628h3.942a5.256,5.256,0,1,0,0-10.512H64.075a2.631,2.631,0,0,1-2.628-2.628V14.141a2.631,2.631,0,0,1,2.628-2.628h9.2A5.256,5.256,0,0,0,73.273,1H43.05a5.262,5.262,0,0,0-5.256,5.256v.133a6.583,6.583,0,0,0-5.256,6.438v5.256H7.57A6.578,6.578,0,0,0,1,24.653V50.934A6.578,6.578,0,0,0,7.57,57.5H20.711v5.256H15.455v2.628H41.736V62.761H36.48V57.5H49.62a6.578,6.578,0,0,0,6.57-6.57V24.653a6.578,6.578,0,0,0-6.57-6.57H45.678V12.827a6.583,6.583,0,0,0-5.256-6.438V6.256A2.631,2.631,0,0,1,43.05,3.628H73.273a2.628,2.628,0,0,1,0,5.256h-9.2a5.262,5.262,0,0,0-5.256,5.256V27.281a5.262,5.262,0,0,0,5.256,5.256H77.216a2.628,2.628,0,1,1,0,5.256H73.273a5.262,5.262,0,0,0-5.256,5.256,3.947,3.947,0,0,0-3.942,3.942v2.194a16.322,16.322,0,0,0-4.925,2.691h0a7.845,7.845,0,0,0-2.959,6.156v6.715A18.589,18.589,0,0,0,68.916,82.4l.415.138.415-.138A18.587,18.587,0,0,0,82.472,64.749V58.034A7.847,7.847,0,0,0,79.513,51.878Zm-37.6-16.712-2.8,4.2-2.8-4.2Zm1.141-2.628H40.422V16.769H43.05Zm-5.256,0H35.166V16.769h2.628ZM49.62,54.876H25.967V57.5h7.884v5.256H23.339V54.876H7.57a3.947,3.947,0,0,1-3.942-3.942V46.992H19l3.942,2.628H53.562v1.314A3.947,3.947,0,0,1,49.62,54.876Zm0-34.166a3.947,3.947,0,0,1,3.942,3.942V46.992H23.737L19.8,44.364H3.628V24.653A3.947,3.947,0,0,1,7.57,20.711H32.537V34.25l6.57,9.855,6.57-9.855V20.711Zm-6.57-7.884v1.314H35.166V12.827a3.942,3.942,0,0,1,7.884,0ZM79.844,58.034v.784h-6.57a2.631,2.631,0,0,0-2.628-2.628V51a13.722,13.722,0,0,1,7.226,2.926A5.23,5.23,0,0,1,79.844,58.034Zm-.367,10.089a15.928,15.928,0,0,0-1.825-.106,13.072,13.072,0,0,0-6.246,1.435,11.682,11.682,0,0,1-10.286,0,19.447,19.447,0,0,0-1.8-.754,15.925,15.925,0,0,1-.5-3.949v-3.3h6.57v2.628A2.631,2.631,0,0,0,68.017,66.7h2.628a2.631,2.631,0,0,0,2.628-2.628V61.447h6.57v3.3A16.041,16.041,0,0,1,79.477,68.124Zm-8.832-9.3v5.256H68.017V58.819ZM66.7,46.992a1.316,1.316,0,0,1,1.314-1.314h2.628a1.316,1.316,0,0,1,1.314,1.314v1.534a15.847,15.847,0,0,0-5.256,0Zm-5.912,6.937A13.731,13.731,0,0,1,68.017,51v5.187a2.631,2.631,0,0,0-2.628,2.628h-6.57v-.784A5.235,5.235,0,0,1,60.791,53.929Zm8.54,25.837a15.949,15.949,0,0,1-8.711-7.654,12.718,12.718,0,0,0,5.64,1.162,13.072,13.072,0,0,0,6.246-1.435,10.436,10.436,0,0,1,5.146-1.193c.372,0,.711.022,1.049.046A15.963,15.963,0,0,1,69.331,79.766Z" transform="translate(-1 -1)" fill="#393e3f"/>
      <path id="Tracciato_7889" data-name="Tracciato 7889" d="M23.809,24.046a3.923,3.923,0,0,0-4.457-4.459,3.925,3.925,0,0,0-6.306,0,3.923,3.923,0,0,0-4.457,4.459,3.923,3.923,0,0,0,0,6.3,3.923,3.923,0,0,0,4.457,4.457,3.924,3.924,0,0,0,6.306,0,3.923,3.923,0,0,0,4.457-4.457,3.924,3.924,0,0,0,0-6.306Zm-1.968,4.4-1.509.468.735,1.4a1.3,1.3,0,0,1-1.757,1.758l-1.4-.737-.468,1.51a1.3,1.3,0,0,1-2.489,0l-.468-1.51-1.4.737a1.3,1.3,0,0,1-1.757-1.758l.735-1.4-1.509-.468a1.3,1.3,0,0,1,0-2.488l1.51-.469-.737-1.4a1.3,1.3,0,0,1,1.758-1.757l1.4.735.468-1.509a1.3,1.3,0,0,1,2.488,0l.468,1.509,1.4-.735a1.3,1.3,0,0,1,1.758,1.757l-.737,1.4,1.51.469a1.3,1.3,0,0,1,0,2.488Z" transform="translate(0.884 4.339)" fill="#393e3f"/>
      <path id="Tracciato_7890" data-name="Tracciato 7890" d="M14.942,22a3.942,3.942,0,1,0,3.942,3.942A3.947,3.947,0,0,0,14.942,22Zm0,5.256a1.314,1.314,0,1,1,1.314-1.314A1.316,1.316,0,0,1,14.942,27.256Z" transform="translate(2.141 5.595)" fill="#393e3f"/>
    </g>
  </g>
</svg>
