<svg id="arrow-right-2" xmlns="http://www.w3.org/2000/svg" width="25.692" height="21.868" viewBox="0 0 25.692 21.868">
  <path id="Arrow-right-2-2" data-name="Arrow-right-2" d="M13.172,18.507l5.653-5.587L1.956,12.843A1.963,1.963,0,0,1,0,10.869H0A1.963,1.963,0,0,1,1.974,8.915l16.865.075L13.262,3.347A1.963,1.963,0,0,1,13.273.569h0a1.967,1.967,0,0,1,2.78.013l9.174,9.264a1.613,1.613,0,0,1-.013,2.281L15.942,21.3a1.965,1.965,0,0,1-2.778-.013h0a1.965,1.965,0,0,1,.007-2.78Z" transform="translate(0 0)" fill="#393e3f"/>
</svg>
