<svg xmlns="http://www.w3.org/2000/svg" xmlns:xlink="http://www.w3.org/1999/xlink" width="14" height="9" viewBox="0 0 14 9">
  <defs>
    <clipPath id="clip-path">
      <rect id="Rettangolo_21" data-name="Rettangolo 21" width="14" height="9" transform="translate(-0.309 0.529)" fill="#fff"/>
    </clipPath>
  </defs>
  <g id="Raggruppa_41" data-name="Raggruppa 41" transform="translate(0.309 -0.528)" clip-path="url(#clip-path)">
    <path id="Tracciato_81" data-name="Tracciato 81" d="M13.381,1.577v6.4A1.577,1.577,0,0,1,11.8,9.558H1.577A1.577,1.577,0,0,1,0,7.981v-6.4A1.568,1.568,0,0,1,.111,1L6.427,5.179a.478.478,0,0,0,.526,0L13.261.986a1.565,1.565,0,0,1,.12.591M12.646.248A1.559,1.559,0,0,0,11.8,0H1.577a1.557,1.557,0,0,0-.86.257L6.691,4.206Z" transform="translate(0 0.07)" fill="#fff"/>
  </g>
</svg>
