<svg xmlns="http://www.w3.org/2000/svg" width="21.763" height="21.763" viewBox="0 0 21.763 21.763">
  <path id="iconmonstr-linkedin-3" d="M17.229,0H4.534A4.534,4.534,0,0,0,0,4.534v12.7a4.534,4.534,0,0,0,4.534,4.534h12.7a4.534,4.534,0,0,0,4.534-4.534V4.534A4.534,4.534,0,0,0,17.229,0ZM7.254,17.229H4.534V7.254h2.72ZM5.894,6.1A1.6,1.6,0,1,1,7.481,4.5,1.594,1.594,0,0,1,5.894,6.1ZM18.136,17.229h-2.72V12.147c0-3.054-3.627-2.823-3.627,0v5.082H9.068V7.254h2.72v1.6c1.266-2.345,6.348-2.518,6.348,2.245Z" fill="#fff"/>
</svg>
