<svg id="align-right-2" xmlns="http://www.w3.org/2000/svg" width="25.689" height="21.245" viewBox="0 0 25.689 21.245">
  <path id="Path" d="M1.857,0H23.835a1.862,1.862,0,0,1,1.853,1.835v.747a1.855,1.855,0,0,1-1.853,1.851H1.857A1.855,1.855,0,0,1,0,2.587V1.838A1.862,1.862,0,0,1,1.857,0Z" transform="translate(0 0)" fill="#393e3f"/>
  <path id="Path-2" data-name="Path" d="M1.857,0H23.835a1.862,1.862,0,0,1,1.853,1.835v.752A1.855,1.855,0,0,1,23.835,4.44H1.857A1.855,1.855,0,0,1,0,2.587V1.838A1.862,1.862,0,0,1,1.857,0Z" transform="translate(0 8.405)" fill="#393e3f"/>
  <path id="Path-3" data-name="Path" d="M1.853,0H11.917A1.862,1.862,0,0,1,13.77,1.835V2.58a1.855,1.855,0,0,1-1.853,1.853H1.853A1.855,1.855,0,0,1,0,2.58V1.833A1.862,1.862,0,0,1,1.853,0Z" transform="translate(11.919 16.812)" fill="#393e3f"/>
</svg>
