<svg xmlns="http://www.w3.org/2000/svg" width="21.763" height="21.763" viewBox="0 0 21.763 21.763">
  <path id="Twitter_social_icons_-_circle_-_white" data-name="Twitter social icons - circle - white" d="M21.763,10.881A10.881,10.881,0,1,1,10.881,0,10.878,10.878,0,0,1,21.763,10.881ZM8.89,16.621a7.414,7.414,0,0,0,7.465-7.465c0-.114,0-.229-.005-.337a5.375,5.375,0,0,0,1.311-1.36,5.325,5.325,0,0,1-1.507.413A2.622,2.622,0,0,0,17.307,6.42a5.313,5.313,0,0,1-1.665.637,2.625,2.625,0,0,0-4.538,1.8,2.4,2.4,0,0,0,.071.6A7.443,7.443,0,0,1,5.767,6.708a2.622,2.622,0,0,0,.816,3.5A2.577,2.577,0,0,1,5.4,9.88v.033A2.626,2.626,0,0,0,7.5,12.486a2.615,2.615,0,0,1-.691.092,2.5,2.5,0,0,1-.5-.049,2.62,2.62,0,0,0,2.448,1.823,5.274,5.274,0,0,1-3.259,1.121,4.771,4.771,0,0,1-.626-.038,7.309,7.309,0,0,0,4.01,1.186" fill="#fff"/>
</svg>
