<svg xmlns="http://www.w3.org/2000/svg" width="12.94" height="12.938" viewBox="0 0 12.94 12.938">
  <path id="Tracciato_81" data-name="Tracciato 81" d="M30.313,27.8l-.064-.194a1.82,1.82,0,0,0-1.112-1.051l-1.7-.465a1.667,1.667,0,0,0-1.456.381l-.615.615a6.528,6.528,0,0,1-4.594-4.595l.615-.615a1.665,1.665,0,0,0,.381-1.455l-.464-1.7a1.818,1.818,0,0,0-1.052-1.111l-.194-.065a1.544,1.544,0,0,0-1.438.34l-.921.921a1.716,1.716,0,0,0-.27.633A10.865,10.865,0,0,0,28.392,30.428a1.71,1.71,0,0,0,.662-.267l.921-.92A1.544,1.544,0,0,0,30.313,27.8Z" transform="translate(-17.428 -17.491)" fill="#fff"/>
</svg>
