<?xml version="1.0" encoding="utf-8"?>
<!-- Generator: Adobe Illustrator 25.0.0, SVG Export Plug-In . SVG Version: 6.00 Build 0)  -->
<svg version="1.1" id="Livello_1" xmlns="http://www.w3.org/2000/svg" xmlns:xlink="http://www.w3.org/1999/xlink" x="0px" y="0px"
	 viewBox="0 0 64 65.3" style="enable-background:new 0 0 64 65.3;" xml:space="preserve">
<style type="text/css">
	.st0{fill:#3D4041;}
</style>
<g>
	<path class="st0" d="M8.8,20.7v3.4c0,2.3,1.9,4.2,4.2,4.2s4.2-1.9,4.2-4.2v-3.4c3.9-2.3,5.1-7.4,2.8-11.2c-1.5-2.5-4.3-4.1-7.3-4
		c-4.4,0.2-7.9,3.8-7.9,8.2C4.8,16.6,6.3,19.3,8.8,20.7z M15.2,24.1c0,1.2-1,2.2-2.2,2.2s-2.2-1-2.2-2.2v-1.4h4.4L15.2,24.1z
		 M12.8,7.5c0.1,0,0.1,0,0.2,0c3.4,0,6.2,2.8,6.2,6.2c0,2.3-1.3,4.5-3.4,5.5c-0.3,0.2-0.6,0.5-0.6,0.9v0.6h-4.4v-0.6
		c0-0.4-0.2-0.7-0.6-0.9c-2.1-1-3.4-3.2-3.4-5.5C6.8,10.4,9.5,7.7,12.8,7.5z"/>
	<rect x="12" y="1.7" class="st0" width="2" height="2.4"/>
	<rect x="1" y="12.7" class="st0" width="2.4" height="2"/>
	<rect x="22.6" y="12.7" class="st0" width="2.4" height="2"/>
	<rect x="4.4" y="4.9" transform="matrix(0.7071 -0.7071 0.7071 0.7071 -2.74 5.5777)" class="st0" width="2" height="2.4"/>
	<rect x="19.6" y="20.2" transform="matrix(0.7071 -0.7071 0.7071 0.7071 -9.0661 20.8512)" class="st0" width="2" height="2.4"/>
	<rect x="4.2" y="20.4" transform="matrix(0.7071 -0.7071 0.7071 0.7071 -13.5398 10.0514)" class="st0" width="2.4" height="2"/>
	<rect x="19.4" y="5.1" transform="matrix(0.7071 -0.7071 0.7071 0.7071 1.7334 16.3782)" class="st0" width="2.4" height="2"/>
	<path class="st0" d="M53,43.5c-5.5,0-10,4.5-10,10s4.5,10,10,10s10-4.5,10-10C63,48,58.5,43.5,53,43.5z M53,61.5c-4.4,0-8-3.6-8-8
		s3.6-8,8-8s8,3.6,8,8C61,57.9,57.4,61.5,53,61.5z"/>
	<path class="st0" d="M52.2,50.5h1.5c0.6-0.1,1.2,0.4,1.2,1h2c-0.1-1.6-1.4-2.9-3-3v-1h-2v1c-1.6,0.1-2.9,1.4-3,3
		c0.1,1.7,1.5,3.1,3.2,3h1.5c0.6-0.1,1.1,0.2,1.2,0.8c0.1,0.6-0.2,1.1-0.8,1.2c-0.1,0-0.3,0-0.5,0h-1.5c-0.6,0.1-1.2-0.4-1.2-1h-2
		c0.1,1.6,1.4,2.9,3,3v1h2v-1c1.6-0.1,2.9-1.4,3-3c-0.1-1.7-1.5-3.1-3.2-3h-1.5c-0.6,0.1-1.1-0.2-1.2-0.8c-0.1-0.6,0.2-1.1,0.8-1.2
		C51.9,50.5,52.1,50.5,52.2,50.5z"/>
	<rect x="28" y="25.5" class="st0" width="12" height="2"/>
	<rect x="24" y="25.5" class="st0" width="2" height="2"/>
	<rect x="28" y="32.5" class="st0" width="12" height="2"/>
	<rect x="24" y="32.5" class="st0" width="2" height="2"/>
	<rect x="28" y="39.5" class="st0" width="12" height="2"/>
	<rect x="24" y="39.5" class="st0" width="2" height="2"/>
	<path class="st0" d="M53,33.5c-0.6,0-1,0.4-1,1c0,0.2,0,0.4,0.1,0.5l3,5c0.3,0.5,0.9,0.6,1.4,0.3c0.1-0.1,0.3-0.2,0.3-0.3l3-5
		c0.3-0.5,0.1-1.1-0.3-1.4c-0.2-0.1-0.3-0.1-0.5-0.1h-2c0-0.3,0-0.7,0-1c0-13.8-11.2-25-25-25c-1.7,0-3.5,0.2-5.2,0.5l0.4,2
		c12.4-2.6,24.7,5.3,27.3,17.7c0.3,1.6,0.5,3.2,0.5,4.8c0,0.3,0,0.7,0,1H53z M57.2,35.5L56,37.6l-1.2-2.1H57.2z"/>
	<path class="st0" d="M40,56.5c0-0.4-0.2-0.7-0.5-0.9l-5-3c-0.5-0.3-1.1-0.1-1.4,0.3C33,53.2,33,53.4,33,53.5v2c-0.3,0-0.7,0-1,0
		c-12.7,0-23-10.3-23-23c0-0.6,0-1.3,0.1-1.9l-2-0.2C7,31.1,7,31.8,7,32.5c0,13.8,11.2,25,25,25c0.3,0,0.7,0,1,0v2c0,0.6,0.4,1,1,1
		c0.2,0,0.4,0,0.5-0.1l5-3C39.8,57.2,40,56.9,40,56.5z M35,57.8v-2.5l2.1,1.2L35,57.8z"/>
</g>
</svg>
