<?xml version="1.0" encoding="utf-8"?>
<!-- Generator: Adobe Illustrator 25.0.0, SVG Export Plug-In . SVG Version: 6.00 Build 0)  -->
<svg version="1.1" id="Livello_1" xmlns="http://www.w3.org/2000/svg" xmlns:xlink="http://www.w3.org/1999/xlink" x="0px" y="0px"
	 viewBox="0 0 64 64.1" style="enable-background:new 0 0 64 64.1;" xml:space="preserve">
<g>
	<path d="M3.1,62h56c0.6,0,1-0.4,1-1v-8c0-0.6-0.4-1-1-1h-7v-5c0-0.6-0.4-1-1-1h-7v-5c0-0.6-0.4-1-1-1h-24c-0.6,0-1,0.4-1,1v5h-7
		c-0.6,0-1,0.4-1,1v5h-7c-0.6,0-1,0.4-1,1v8C2.1,61.6,2.5,62,3.1,62z M4.1,54h7c0.6,0,1-0.4,1-1v-5h7c0.6,0,1-0.4,1-1v-5h22v5
		c0,0.6,0.4,1,1,1h7v5c0,0.6,0.4,1,1,1h7v6h-54V54z"/>
	<path d="M45.1,7.6C44.8,7.2,44.6,7,44.2,7h-12c-0.6,0-1,0.4-1,1v7v1v14c-4.1,0.2-8,1.5-8,4c0,2.6,4.5,4,9,4s9-1.4,9-4
		c0-2.4-3.9-3.8-8-4V17h11c0.4,0,0.7-0.2,0.9-0.6c0.2-0.4,0.1-0.7-0.1-1L42.3,12l2.5-3.4C45.2,8.3,45.2,7.9,45.1,7.6z M39.2,34
		c0,0.6-2.5,2-7,2s-7-1.4-7-2c0-0.5,2.1-1.8,6-2v2h2v-2C37.1,32.2,39.2,33.5,39.2,34z M40.3,12.6l1.8,2.4h-9V9h9l-1.8,2.4
		C40.1,11.8,40.1,12.2,40.3,12.6z"/>
	<path d="M46.2,33v5h2v-2.6l12.3,12.3l1.4-1.4L49.6,34h2.6v-2h-5C46.6,32,46.2,32.4,46.2,33z"/>
	<path d="M18.1,38v-5c0-0.6-0.4-1-1-1h-5v2h2.6L2.4,46.3l1.4,1.4l12.3-12.3V38H18.1z"/>
	<rect x="49.2" y="10" width="3" height="2"/>
	<rect x="46.7" y="3" transform="matrix(0.7071 -0.7071 0.7071 0.7071 11.2401 35.2324)" width="2.8" height="2"/>
	<rect x="47.1" y="16.6" transform="matrix(0.7071 -0.7071 0.7071 0.7071 1.3406 39.3329)" width="2" height="2.8"/>
	<path d="M21.1,28V16.6l7.5-4.7c0.3-0.2,0.5-0.5,0.5-0.8V7c0-0.4-0.2-0.7-0.5-0.9c-0.3-0.2-0.7-0.2-1,0l-7.3,4.6L20,10.2
		c0.7-0.8,1.2-2,1.2-3.2c0-2.8-2.2-5-5-5s-5,2.2-5,5c0,1.2,0.5,2.4,1.2,3.2l-0.4,0.5L4.6,6.2C4.3,6,3.9,6,3.6,6.2
		C3.3,6.3,3.1,6.6,3.1,7v4c0,0.3,0.2,0.7,0.5,0.8l7.5,4.7V28c0,0.6,0.4,1,1,1h8C20.8,29,21.1,28.6,21.1,28z M16.1,4c1.7,0,3,1.3,3,3
		c0,1-0.5,1.8-1.2,2.4l0,0c-0.1,0.1-0.3,0.2-0.4,0.3l0,0c-0.1,0.1-0.3,0.1-0.4,0.2c0,0,0,0-0.1,0c-0.6,0.2-1.2,0.2-1.8,0
		c0,0,0,0-0.1,0s-0.3-0.1-0.4-0.2l0,0c-0.1-0.1-0.3-0.2-0.4-0.3l0,0C13.6,8.8,13.1,8,13.1,7C13.1,5.3,14.4,4,16.1,4z M19.1,16v11h-2
		v-5h-2v5h-2V16c0-0.3-0.2-0.7-0.5-0.8l-7.5-4.8V8.8l6.5,4c0.4,0.3,1,0.2,1.3-0.2l1.1-1.2h0.1c0.1,0,0.2,0.1,0.3,0.1
		c0.2,0.1,0.5,0.2,0.7,0.2c0.1,0,0.2,0,0.3,0c0.2,0,0.4,0.1,0.7,0.1c0.1,0,0.1,0,0.2,0s0.1,0,0.2,0c0.2,0,0.4,0,0.7-0.1
		c0.1,0,0.2,0,0.3,0c0.2-0.1,0.5-0.1,0.7-0.2c0.1,0,0.2-0.1,0.3-0.1h0.1l1.1,1.2c0.3,0.4,0.9,0.4,1.3,0.2l6.5-4v1.6l-7.5,4.7
		C19.4,15.3,19.1,15.7,19.1,16z"/>
</g>
</svg>
