<?xml version="1.0" encoding="utf-8"?>
<!-- Generator: Adobe Illustrator 25.0.0, SVG Export Plug-In . SVG Version: 6.00 Build 0)  -->
<svg version="1.1" id="Capa_1" xmlns="http://www.w3.org/2000/svg" xmlns:xlink="http://www.w3.org/1999/xlink" x="0px" y="0px"
	 viewBox="0 0 512 512" style="enable-background:new 0 0 512 512;" xml:space="preserve">
<style type="text/css">
	.st0{fill:#B40042;}
	.st1{fill:#E50058;}
	.st2{fill:#FFCC66;}
</style>
<g>
	<g>
		<path class="st0" d="M279.8,122.6v117.6h-33.7v-62h-27.4v-27.1h6c14.6,0,23-8.9,23-24v-4.5H279.8z"/>
	</g>
	<path class="st1" d="M321,327.2v168.8c0,0-45.5-34.5-65-74c-20.8,39.5-65.1,74-65.1,74V327.2c3.6,0.3,7.7,0.7,10.8,1.7
		c4.5,1.5,9.8,5,15.4,8.8c10.9,7.4,23.1,15.7,38.9,15.7c15.7,0,27.9-8.4,38.8-15.7c5.6-3.9,11-7.4,15.4-8.9
		C313.4,327.9,317.6,327.4,321,327.2z"/>
	<g>
		<path class="st2" d="M408.7,127c-5-15.4-25.4-23.2-34.8-36.1c-9.5-13-10.6-34.7-23.6-44.2c-12.8-9.4-33.9-3.8-49.3-8.8
			c-14.9-4.9-28.6-21.9-45.1-21.9c-16.5,0-30.2,17-45.1,21.9c-15.4,5-36.4-0.5-49.3,8.8c-13,9.5-14.1,31.2-23.6,44.2
			c-9.4,12.9-29.8,20.7-34.8,36.1c-4.9,14.9,6.9,33.1,6.9,49.6s-11.8,34.7-6.9,49.6c5,15.5,25.4,23.3,34.8,36.1
			c9.5,13,10.6,34.8,23.6,44.2c9.1,6.6,22.3,5.8,34.7,6.5c5.1,0.3,10.1,0.8,14.6,2.3c14.9,4.8,28.5,21.8,45.1,21.8
			s30.2-17,45.1-21.8c4.5-1.5,9.5-2,14.6-2.3c12.4-0.7,25.6,0.1,34.7-6.5c13-9.5,14.1-31.2,23.6-44.2c9.4-12.8,29.7-20.6,34.8-36.1
			c4.8-14.9-6.9-33.1-6.9-49.6S413.6,141.9,408.7,127z M256,282.8c-58.6,0-106.1-47.5-106.1-106.1S197.4,70.6,256,70.6
			s106.1,47.5,106.1,106.1S314.6,282.8,256,282.8z"/>
	</g>
</g>
</svg>
